<?xml version="1.0" encoding="utf-8"?>
<!-- Generator: Adobe Illustrator 24.1.3, SVG Export Plug-In . SVG Version: 6.00 Build 0)  -->
<svg version="1.1" id="Layer_1" xmlns="http://www.w3.org/2000/svg" xmlns:xlink="http://www.w3.org/1999/xlink" x="0px" y="0px"
	 viewBox="0 0 762.3 864.1" style="enable-background:new 0 0 762.3 864.1;" xml:space="preserve">
<style type="text/css">
	.st0{fill:url(#SVGID_1_);}
	.st1{opacity:0.5;}
	.st2{fill:#FFFFFF;}
	.st3{fill:url(#SVGID_2_);}
	.st4{fill:url(#SVGID_3_);}
	.st5{font-family:'FranklinGothic-Book';}
	.st6{font-size:60px;}
	.st7{fill:#6971FE;}
	.st8{fill:#8B92FE;}
</style>
<linearGradient id="SVGID_1_" gradientUnits="userSpaceOnUse" x1="15.0261" y1="644.1482" x2="783.9888" y2="644.1482" gradientTransform="matrix(0.99 1.000000e-02 1.000000e-02 0.99 -21.2 -205.48)">
	<stop  offset="0" style="stop-color:#26A9E0"/>
	<stop  offset="0.4" style="stop-color:#7465E3"/>
	<stop  offset="0.81" style="stop-color:#BF24E7"/>
	<stop  offset="1" style="stop-color:#DC0BE8"/>
</linearGradient>
<path class="st0" d="M710.8,617.1C588.7,778.5,394.5,950.4,243.1,815.5s-323.9-450-201.7-611.3S415.9-65.5,567.3,69.3
	S833,455.8,710.8,617.1z"/>
<g class="st1">
	<path class="st2" d="M734.3,505.7c0-199.6-47.5-454.4-235.9-454.4S4.4,170.6,4.4,370.2S131,816,319.4,816S734.3,705.3,734.3,505.7z
		"/>
</g>
<linearGradient id="SVGID_2_" gradientUnits="userSpaceOnUse" x1="88.59" y1="416.235" x2="184.4403" y2="416.235" gradientTransform="matrix(1 0 0 -1 0 866)">
	<stop  offset="0" style="stop-color:#DC0BE8"/>
	<stop  offset="0.19" style="stop-color:#BF24E7"/>
	<stop  offset="0.6" style="stop-color:#7465E3"/>
	<stop  offset="1" style="stop-color:#26A9E0"/>
</linearGradient>
<path class="st3" d="M184.4,447.5c0,24.7,0.4,44.4-24.4,44.4s-71.5-2.9-71.5-27.6s6-56.7,30.7-56.7S184.4,422.8,184.4,447.5z"/>
<path class="st2" d="M152,446.4h-2.1v-3.3c0-6.9-5.6-12.5-12.5-12.5s-12.5,5.6-12.5,12.5v3.3h-3.5c-1.3,0-2.4,1.1-2.4,2.4l0,0v13.8
	c0,1.3,1.1,2.4,2.4,2.4h0H152c1.3,0,2.4-1.1,2.4-2.4c0,0,0,0,0,0v-13.8C154.4,447.5,153.3,446.4,152,446.4
	C152,446.4,152,446.4,152,446.4z M129.3,443.2c0-4.4,3.6-8,8-8s8,3.6,8,8v3.3h-16.1L129.3,443.2z M137.7,456.8v2.2
	c0,0.5-0.4,0.9-0.9,0.9c-0.5,0-0.9-0.4-0.9-0.9c0,0,0,0,0,0v-2.2c-1.6-0.5-2.5-2.2-2-3.8s2.2-2.5,3.8-2c1.6,0.5,2.5,2.2,2,3.8
	C139.4,455.7,138.6,456.5,137.7,456.8z"/>
<linearGradient id="SVGID_3_" gradientUnits="userSpaceOnUse" x1="88.59" y1="528.78" x2="184.4403" y2="528.78" gradientTransform="matrix(1 0 0 -1 0 866)">
	<stop  offset="0" style="stop-color:#DC0BE8"/>
	<stop  offset="0.19" style="stop-color:#BF24E7"/>
	<stop  offset="0.6" style="stop-color:#7465E3"/>
	<stop  offset="1" style="stop-color:#26A9E0"/>
</linearGradient>
<path class="st4" d="M184.4,335c0,24.7,0.4,44.4-24.4,44.4s-71.5-2.8-71.5-27.6s6-56.7,30.7-56.7S184.4,310.3,184.4,335z"/>
<path class="st2" d="M155.1,354.5c0-7.6-4.9-14.4-12.1-16.8c4.4-3.3,5.4-9.5,2.1-14c-3.3-4.4-9.5-5.4-14-2.1
	c-4.4,3.3-5.4,9.5-2.1,14c0.6,0.9,1.4,1.6,2.3,2.2c-7,2.5-11.7,9.2-11.7,16.7"/>
<path class="st2" d="M602.9,376.5H254.6c-12.6,0-24.2-4-32.8-11.2c-8.5-7.1-13.7-17.3-14.4-28.3h-0.2v-3.8h0.2
	c0.8-11,6-21.2,14.4-28.2c8.6-7.2,20.2-11.2,32.8-11.2h348.4c12.6,0,24.2,4,32.8,11.2c8.5,7,13.7,17.3,14.4,28.3h0.2v3.8h-0.2
	c-0.8,11-6,21.2-14.4,28.3C627.1,372.5,615.5,376.5,602.9,376.5z M209.4,335.1c1,22.7,20,39.2,45.2,39.2h348.4
	c25.2,0,44.2-16.5,45.2-39.2c-1-22.7-20-39.2-45.2-39.2H254.6C229.3,295.9,210.3,312.4,209.4,335.1z"/>
<path class="st2" d="M602.9,489.1H254.6c-12.6,0-24.2-4-32.8-11.2c-8.5-7.1-13.7-17.3-14.4-28.3h-0.2v-3.8h0.2
	c0.8-11,6-21.2,14.4-28.3c8.6-7.2,20.2-11.2,32.8-11.2h348.4c12.6,0,24.2,4,32.8,11.2c8.5,7.1,13.7,17.3,14.4,28.3h0.2v3.8h-0.2
	c-0.8,11-6,21.2-14.4,28.3C627.1,485.1,615.5,489.1,602.9,489.1z M209.4,447.7c1,22.7,20,39.2,45.2,39.2h348.4
	c25.2,0,44.2-16.5,45.2-39.2c-1-22.7-20-39.2-45.2-39.2H254.6C229.3,408.5,210.3,424.9,209.4,447.7z"/>
<circle class="st2" cx="368.9" cy="81.1" r="81.1"/>
<text transform="matrix(0.9 0 0 1 309.8999 234.02)" class="st2 st5 st6">RMS</text>
<path class="st7" d="M409.6,150.4c0-12.2,0.2-23.7-0.1-35.2c-0.5-19.4-3.6-38.1-16.7-53.6c-3.2-3.8-6.6-7.5-10.6-10.5
	c-1.5-1.1-2.9-2.4-5.2-0.9c1.4,2.6,4.1,4.2,6.2,6c14.3,12.6,20.8,28.8,22.3,47.4c0.1,1.5,0.1,3,0.4,4.5c0.5,2.4,0.6,4.3-2.5,4.8
	c-1.6,0.3-2.1,1.4-1.9,2.9c0.1,1.6,1.1,1.9,2.4,1.9c2.3,0.1,2.6,1.5,2.6,3.4c0,9.5,0,19,0,28.5c0,2.4-4.3,5.9-6.5,5.5
	c-2.1-0.4-1.1-2.2-1.1-3.3c-0.2-11.3,0-22.6-0.4-34c-0.5-15-0.8-30-8.6-43.5c-3.9-6.9-8.5-13.1-14.9-17.8c-1.1-0.8-2.2-1.5-3.4-2
	c-1.2-0.5-2.3,0.2-3,1.1c-1.2,1.6,0.4,2.1,1.2,2.6c18.9,11.8,23.4,30.7,24.9,51.1c0.2,2.2,1,4.8-2.6,5.4c-1.1,0.2-1.2,1.4-1.1,2.5
	c0.1,1.3,0.9,1.7,2,1.6c2.9-0.2,2.6,1.8,2.6,3.6c0,9.8-0.1,19.6,0.1,29.5c0,2.9-1,3.6-3.7,3.7c-2.9,0-3.2-1.3-3.2-3.6
	c0.2-16.3,0-32.6-1-48.9c-1-16.4-7.1-30.3-20.3-40.5c-1.3-1-2.4-3.4-4.5-1.1c-2.3,2.6,0.7,3,1.9,3.8c15.8,12,20.1,28.9,20.1,47.6
	c0,1.2-0.1,2.1-1.6,2.7c-2.6,1.1-2.8,2.9,0,3.9c1.9,0.7,2.1,1.8,2.1,3.4c0,9.3,0,18.6,0.1,28c0,1.9-0.7,2.6-2.6,2.7
	c-2.7,0.1-2.9-1.5-2.9-3.5c-0.1-11.3-0.2-22.6-0.5-34c-0.4-15.2-3.9-29.3-14.1-41.1c-1.2-1.4-2.4-2.8-3.9-3.8
	c-1.3-0.9-2.6-3.5-4.4-1.1c-1.4,2,0.9,2.8,2.1,3.8c2.5,2,4.6,4.2,6.6,6.7c7.8,9.7,9.7,21.2,10.5,33.2c0.1,1.4-0.1,2.4-1.6,3.3
	c-1.5,0.8-2,2.6,0,3.3c2.1,0.7,1.7,2.1,1.7,3.5c0.1,8.2,0.1,16.3,0.1,24.5c0,1.5,0.7,3.6-2,3.7c-2.8,0.1-2.6-1.9-2.7-3.7
	c-0.5-13.3,0.5-26.6-1.3-39.9c-1.5-11.2-4.7-21.8-13.2-29.9c-2.4-2.3-3.9-2.6-5,1.2c-1.5,5-2.4,10-2.7,15.2
	c-1.3,20.1-0.4,40.2-0.2,60.3c0,3.8-1.2,4.1-4.1,3.1c-7.1-2.3-13.9-5.3-20.2-9.3c-2.3-1.4-2.9-3.1-2.9-5.7
	c0.1-40.1,0.1-80.3,0-120.4c0-3.5,0.6-4.5,4.4-3.7c32.7,6.7,65.4,13.1,98.2,19.5c3.6,0.7,4.6,2.2,4.6,5.9c-0.2,28.3-0.1,56.6,0,84.9
	c0,3-0.7,5.3-2.9,7.5C421.7,142,416.5,146.5,409.6,150.4z"/>
<path class="st7" d="M318.8,143.5c-3-0.6-2.6-2.7-2.6-4.4c0-35.6,0-71.3,0-106.9c0-1.3-1-3.4,1.3-3.6c1.9-0.2,1.7,1.6,1.7,2.9
	c0,37,0,73.9-0.1,110.9C319.2,142.7,319,143,318.8,143.5z"/>
<path class="st7" d="M313.8,139c-2.6-0.5-2.6-2.5-2.6-4.6c0-31.6,0-63.2,0-94.7c0-1.2-0.6-3,1.3-3.2c2.1-0.2,1.6,1.7,1.6,2.9
	c0,33.1-0.1,66.1-0.1,99.2C314.1,138.7,313.9,138.9,313.8,139z"/>
<path class="st8" d="M309.8,135.2c-2.7-1.2-2.5-3.2-2.5-5.2c0-29.1,0-58.2,0-87.3c0-1.3-0.8-3.6,1.2-3.7c2.2-0.2,1.5,2.1,1.5,3.4
	c0,30.1,0,60.2,0,90.2C310.1,133.4,309.9,134.2,309.8,135.2z"/>
</svg>
