<?xml version="1.0" encoding="utf-8"?>
<!-- Generator: Adobe Illustrator 24.1.3, SVG Export Plug-In . SVG Version: 6.00 Build 0)  -->
<svg version="1.1" id="Layer_1" xmlns="http://www.w3.org/2000/svg" xmlns:xlink="http://www.w3.org/1999/xlink" x="0px" y="0px"
	 viewBox="0 0 887.1 311.4" style="enable-background:new 0 0 887.1 311.4;" xml:space="preserve">
<style type="text/css">
	.st0{opacity:0.25;}
	.st1{fill:#F63665;}
	.st2{fill:url(#SVGID_1_);}
	.st3{fill:#FFFFFF;}
</style>
<g class="st0">
	<path class="st1" d="M887.1,159.4c0,92.1-74.6,152-166.7,152H166.7c-92.1,0-166.7-60-166.7-152v13.8c0-92.1,74.6-152,166.7-152
		h553.7c92.1,0,166.7,60,166.7,152V159.4z"/>
</g>
<radialGradient id="SVGID_1_" cx="443.57" cy="145.1" r="475.9568" gradientUnits="userSpaceOnUse">
	<stop  offset="0" style="stop-color:#26A9E0"/>
	<stop  offset="4.255823e-02" style="stop-color:#3998E1"/>
	<stop  offset="0.1142" style="stop-color:#5382E2"/>
	<stop  offset="0.1881" style="stop-color:#6572E2"/>
	<stop  offset="0.265" style="stop-color:#7068E3"/>
	<stop  offset="0.3498" style="stop-color:#7465E3"/>
	<stop  offset="0.4615" style="stop-color:#7861E3"/>
	<stop  offset="0.583" style="stop-color:#8556E4"/>
	<stop  offset="0.709" style="stop-color:#9B43E5"/>
	<stop  offset="0.8374" style="stop-color:#B929E7"/>
	<stop  offset="0.8582" style="stop-color:#BF24E7"/>
	<stop  offset="0.94" style="stop-color:#C122E7"/>
	<stop  offset="0.9694" style="stop-color:#C81DE7"/>
	<stop  offset="0.9904" style="stop-color:#D312E8"/>
	<stop  offset="1" style="stop-color:#DC0BE8"/>
</radialGradient>
<path class="st2" d="M887.1,138.2c0,92.1-74.6,152-166.7,152H166.7c-92.1,0-166.7-60-166.7-152V152C0,60,74.6,0,166.7,0h553.7
	c92.1,0,166.7,60,166.7,152V138.2z"/>
<path class="st3" d="M280.3,180.9v-74.5h5.5v69.4h43.7v5.1L280.3,180.9z"/>
<path class="st3" d="M375.9,182.2c-22.6,0-37.4-18-37.4-38.3v-0.2c0-20.3,15-38.5,37.6-38.5s37.4,18,37.4,38.3
	c0.1,0.1,0.1,0.1,0,0.2C413.5,164,398.5,182.2,375.9,182.2z M407.8,143.7c0-18.4-13.4-33.5-31.8-33.5s-31.6,14.9-31.6,33.3v0.2
	c0,18.4,13.4,33.5,31.8,33.5s31.6-14.9,31.6-33.3V143.7z"/>
<path class="st3" d="M466.5,182.2c-23.5,0-37.5-17.3-37.5-38.3v-0.2c0-20.1,14.6-38.5,36.8-38.5c12.1,0,19.8,3.6,27.2,9.8l-3.6,4.2
	c-5.9-5.1-12.7-8.9-23.9-8.9c-18.1,0-30.8,15.3-30.8,33.3v0.2c0,19.3,12,33.6,31.9,33.6c8.6-0.1,17-3.1,23.7-8.5v-21.4h-24.9v-5.1
	h30.2V171C487.6,178.1,477.3,182.1,466.5,182.2z"/>
<path class="st3" d="M516.5,180.9v-74.5h5.5v74.5H516.5z"/>
<path class="st3" d="M602.7,180.9l-52.5-66.2v66.2h-5.3v-74.5h5.2l51.4,64.8v-64.8h5.3v74.5H602.7z"/>
</svg>
