<svg xmlns="http://www.w3.org/2000/svg" xmlns:xlink="http://www.w3.org/1999/xlink" viewBox="0 0 887.14 290.22"><defs><style>.cls-1{isolation:isolate;}.cls-2{opacity:0.25;mix-blend-mode:multiply;}.cls-3{fill:#f63665;}.cls-4{fill:url(#linear-gradient);}.cls-5{fill:#fff;}</style><linearGradient id="linear-gradient" y1="145.11" x2="887.14" y2="145.11" gradientUnits="userSpaceOnUse"><stop offset="0" stop-color="#26a9e0"/><stop offset="0.4" stop-color="#7465e3"/><stop offset="0.81" stop-color="#bf24e7"/><stop offset="1" stop-color="#dc0be8"/></linearGradient></defs><g class="cls-1"><g id="Layer_2" data-name="Layer 2"><g id="Layer_5" data-name="Layer 5"><g class="cls-2"><path class="cls-3" d="M887.14,138.2c0,92.07-74.63,152-166.7,152H166.7c-92.07,0-166.7-60-166.7-152V152C0,60,74.63,0,166.7,0H720.44c92.07,0,166.7,60,166.7,152Z"/></g><path class="cls-4" d="M887.14,138.2c0,92.07-74.63,152-166.7,152H166.7c-92.07,0-166.7-60-166.7-152V152C0,60,74.63,0,166.7,0H720.44c92.07,0,166.7,60,166.7,152Z"/><path class="cls-5" d="M280.28,180.9V106.42h5.53v69.37h43.74v5.11Z"/><path class="cls-5" d="M375.94,182.18c-22.56,0-37.35-18-37.35-38.31v-.21c0-20.33,15-38.52,37.56-38.52s37.35,18,37.35,38.3c.11.11.11.11,0,.22C413.5,164,398.5,182.18,375.94,182.18Zm31.82-38.52c0-18.41-13.41-33.52-31.82-33.52s-31.6,14.9-31.6,33.3v.22c0,18.41,13.41,33.52,31.81,33.52s31.61-14.9,31.61-33.31Z"/><path class="cls-5" d="M466.5,182.18C443,182.18,429,164.83,429,143.87v-.21c0-20.11,14.58-38.52,36.82-38.52,12.13,0,19.79,3.62,27.24,9.79l-3.62,4.15c-5.85-5.11-12.66-8.94-23.94-8.94-18.09,0-30.75,15.32-30.75,33.3v.22c0,19.26,12,33.62,31.92,33.62a38.29,38.29,0,0,0,23.73-8.51V147.38h-24.9v-5.11h30.22V171A44.78,44.78,0,0,1,466.5,182.18Z"/><path class="cls-5" d="M516.52,180.9V106.42h5.53V180.9Z"/><path class="cls-5" d="M602.7,180.9l-52.45-66.18V180.9h-5.32V106.42h5.21l51.39,64.8v-64.8h5.32V180.9Z"/></g></g></g></svg>